<?xml version="1.0" encoding="iso-8859-1"?>
<!-- Uploaded to: SVG Repo, www.svgrepo.com, Generator: SVG Repo Mixer Tools -->
<!DOCTYPE svg PUBLIC "-//W3C//DTD SVG 1.1//EN" "http://www.w3.org/Graphics/SVG/1.1/DTD/svg11.dtd">
<svg fill="#f69c00f0" height="800px" width="800px" version="1.1" id="Capa_1" xmlns="http://www.w3.org/2000/svg" xmlns:xlink="http://www.w3.org/1999/xlink" 
	 viewBox="0 0 451.219 451.219" xml:space="preserve">
<path d="M316.177,0H135.042c-17.056,0-30.932,13.876-30.932,30.932v57.047v0.001c0,11.253,5.308,21.282,13.544,27.738
	c-8.237,6.456-13.544,16.486-13.544,27.738v26.523c0,11.253,5.308,21.282,13.544,27.738c-8.237,6.456-13.544,16.486-13.544,27.738
	v26.523c0,11.253,5.308,21.282,13.544,27.738c-8.237,6.456-13.544,16.486-13.544,27.738v26.523c0,11.252,5.308,21.282,13.544,27.738
	c-8.237,6.456-13.544,16.486-13.544,27.738v26.523c0,19.431,15.808,35.238,35.238,35.238h172.523
	c19.431,0,35.238-15.808,35.238-35.238v-26.523c0-11.252-5.308-21.282-13.544-27.738c8.237-6.456,13.544-16.486,13.544-27.738
	v-26.523c0-11.253-5.308-21.282-13.544-27.738c8.237-6.456,13.544-16.486,13.544-27.738v-26.523
	c0-11.253-5.308-21.282-13.544-27.738c8.237-6.456,13.544-16.486,13.544-27.738v-26.523c0-11.253-5.308-21.282-13.544-27.738
	c8.237-6.456,13.544-16.486,13.544-27.738v-0.001V30.932C347.109,13.876,333.233,0,316.177,0z M135.042,15h181.135
	c8.785,0,15.933,7.147,15.933,15.932v0.118c-4.658-2.811-10.111-4.432-15.937-4.432H135.045c-5.825,0-11.279,1.621-15.936,4.431
	v-0.118C119.109,22.147,126.256,15,135.042,15z M332.109,389.457v26.523c0,11.16-9.079,20.238-20.238,20.238H139.348
	c-11.16,0-20.238-9.079-20.238-20.238v-26.523c0-11.16,9.079-20.238,20.238-20.238h172.523
	C323.031,369.219,332.109,378.297,332.109,389.457z M332.109,307.457v26.523c0,11.16-9.079,20.238-20.238,20.238H139.348
	c-11.16,0-20.238-9.079-20.238-20.238v-26.523c0-11.16,9.079-20.238,20.238-20.238h172.523
	C323.031,287.219,332.109,296.297,332.109,307.457z M332.109,225.457v26.523c0,11.16-9.079,20.238-20.238,20.238H139.348
	c-11.16,0-20.238-9.079-20.238-20.238v-26.523c0-11.16,9.079-20.238,20.238-20.238h172.523
	C323.031,205.219,332.109,214.297,332.109,225.457z M332.109,143.457v26.523c0,11.16-9.079,20.238-20.238,20.238H139.348
	c-11.16,0-20.238-9.079-20.238-20.238v-26.523c0-11.16,9.079-20.238,20.238-20.238h172.523
	C323.031,123.219,332.109,132.297,332.109,143.457z M173.657,108.219c3.651-25.406,25.553-44.997,51.953-44.997
	s48.301,19.592,51.952,44.997H173.657z M332.109,87.98c0,11.159-9.079,20.238-20.238,20.238h-19.192
	c-3.744-33.7-32.388-59.997-67.07-59.997s-63.326,26.297-67.07,59.997h-19.191c-11.16,0-20.238-9.079-20.238-20.238v-0.001V57.555
	c0-8.788,7.149-15.937,15.936-15.937h181.127c8.788,0,15.937,7.149,15.937,15.937v30.424V87.98z"/>
</svg>